<svg width="24" height="24" viewBox="0 0 24 24" fill="none" xmlns="http://www.w3.org/2000/svg">
<g clip-path="url(#clip0)">
<path fill-rule="evenodd" clip-rule="evenodd" d="M9.23079 23.114C5.5669 19.0682 2.68809 11.898 4.12869 6.46406C5.56928 1.03008 9.83104 -0.25584 12.8323 0.0394845C15.8335 0.334809 20.6874 2.46894 20.9875 7.48946C21.2876 12.51 16.1235 20.945 12.8323 23.114C12.127 23.5789 11.3317 24 10.7314 24C10.1312 24 9.83104 23.7047 9.23079 23.114ZM12.6319 12.3871C15.1875 12.3871 16.2955 11.6502 16.2955 8.66933C16.2955 6.52916 14.858 4.64516 11.6635 4.64516C9.36999 4.64516 7.67045 5.77181 7.67045 8.34795C7.67045 10.9241 9.91664 12.3871 12.6319 12.3871Z" fill="#E50046"/>
</g>
<defs>
<clipPath id="clip0">
<path d="M0 0H24V24H0V0Z" fill="white"/>
</clipPath>
</defs>
</svg>
