<svg width="24" height="24" viewBox="0 0 24 24" fill="none" xmlns="http://www.w3.org/2000/svg">
<path d="M9.51542 23.0618C10.4887 23.5285 11.7707 23.7052 12.8498 23.6878C14.0407 23.679 14.8475 23.5943 15.9674 23.1888C17.5538 22.6238 18.8464 21.8795 18.7469 20.6134C18.6473 19.3472 18.246 17.2228 16.875 16.1741C16.6808 16.0141 16.4541 15.8983 16.2107 15.8347C15.9673 15.7712 15.7129 15.7615 15.4654 15.8063C14.8316 15.9282 14.1337 16.165 13.5 16.5491C12.75 17.0037 11.2895 16.735 10.5 16.1741C9.375 15.375 8.64117 11.3118 9.23225 8.625C9.47973 7.5 10.9695 7.78484 12.3751 7.62021L12.7407 7.58363C13.1544 7.54071 13.5476 7.38173 13.875 7.125C14.2024 6.86827 14.4506 6.52423 14.5911 6.13251C15.2817 4.39483 14.6801 2.23549 13.5 0.812827C12.5616 -0.315145 10.8166 -0.0766631 9.23225 0.380623C8.02893 0.723464 6.91357 1.32168 5.96206 2.13457C4.8896 3.07962 4.23556 4.24011 4.06698 5.49003C3.54497 9.45317 3.16107 16.2779 7.2417 21.3731C7.90427 22.2255 8.54216 22.5952 9.51542 23.0618Z" fill="white"/>
</svg>
